<svg xmlns="http://www.w3.org/2000/svg" version="1.1" xmlns:xlink="http://www.w3.org/1999/xlink" xmlns:svgjs="http://svgjs.dev/svgjs" width="100%" height="100%" viewBox="0 0 1000 600"><rect width="1000" height="600" x="0" y="0" fill="#191917"/><g><rect width="333.3333333333333" height="333.3333333333333" rx="13.333333333333334" ry="13.333333333333334" y="200.871217224506" fill="#3dc020" transform="matrix(0.6996960182577057,0,0,0.6996960182577057,0,42.83518905587066)" x="178.6490478515625"/><path d="M194.77224640202093 292.5378842567403L213.91475836172643 292.5378842567403L213.91475836172643 442.5378833353159L194.77224640202093 442.5378833353159L194.77224640202093 292.5378842567403ZM212.1635506430152 354.07170030386936L285.44253570012125 354.07170030386936L285.44253570012125 370.587400685508L212.1635506430152 370.587400685508L212.1635506430152 354.07170030386936ZM283.05727001429045 292.5378842567403L302.1695887374664 292.5378842567403L302.1695887374664 442.5378833353159L283.05727001429045 442.5378833353159L283.05727001429045 292.5378842567403ZM460.2311819694196 292.5378842567403L481.72876637842637 292.5378842567403Q489.5790078760974 292.5378842567403 489.5790078760974 300.56928517358836L489.5790078760974 300.56928517358836L495.8592010742343 442.5378833353159L476.7468823510583 442.5378833353159L471.31209977574747 308.4195266712594L466.75292105979247 308.4195266712594L433.2686217485725 419.04754531536184Q431.51741402986136 425.56928440573466 424.9956749394885 425.56928440573466L424.9956749394885 425.56928440573466L407.8157233542007 425.56928440573466Q401.08263160812135 425.56928440573466 399.1200712337036 419.04754531536184L399.1200712337036 419.04754531536184L365.66596515901324 308.4195266712594L361.3181390987647 308.4195266712594L356.0947091791605 442.5378833353159L336.952197219455 442.5378833353159L342.83987834270823 300.56928517358836Q343.2625836541213 292.5378842567403 350.87127925955633 292.5378842567403L350.87127925955633 292.5378842567403L372.6104095607991 292.5378842567403Q378.709443339759 292.5378842567403 380.64181047764714 299.0596233471132L380.64181047764714 299.0596233471132L408.69132721355635 390.5753232680396Q410.44253493226756 395.58740053193725 411.62007115691824 400.5692845593054Q412.8278006180984 405.58136182320305 414.3374624445736 410.80479174280725L414.3374624445736 410.80479174280725L418.2625831934091 410.80479174280725Q419.7722450198843 405.58136182320305 421.10074742718245 400.5692845593054Q422.39905659795113 395.58740053193725 423.9087184244263 390.15261795662656L423.9087184244263 390.15261795662656L451.95823516033545 299.0596233471132Q453.7094428790467 292.5378842567403 460.2311819694196 292.5378842567403L460.2311819694196 292.5378842567403Z " fill="#191919" transform="matrix(0.6996960182577057,0,0,0.6996960182577057,0,42.83518905587066)"/><path d="M632.6940621201163 292.5378832604714L632.6940621201163 292.5378832604714Q646.876049770232 292.5378832604714 655.2183954467707 295.1332796931723Q663.5607411233093 297.7286761258732 667.3147966777517 304.2171672076255Q671.0688522321941 310.7288314718126 671.0688522321941 322.5703276960105L671.0688522321941 322.5703276960105Q671.0688522321941 334.9216339337747 666.4805621100978 341.4332981979618Q661.8922719880015 347.94496246214885 651.5570326220676 348.94140930684654L651.5570326220676 348.94140930684654L651.5570326220676 349.6134315974566Q664.3949756909632 350.7720907191981 669.4930758266257 358.6277995646053Q674.5680027798534 366.4603352275777 674.5680027798534 380.31789832360573L674.5680027798534 380.31789832360573Q674.5680027798534 392.1593945478037 670.9066399551502 398.67105881199075Q667.2452771304472 405.159549893743 659.1346632782569 407.7549463264439Q651.0472226085013 410.35034275914484 637.8616818030833 410.35034275914484L637.8616818030833 410.35034275914484Q628.0362524507157 410.35034275914484 620.9452586256577 410.2576500294055Q613.8542648005999 410.1649572996662 607.8292373675442 409.84053274557857Q601.8273831169233 409.51610819149096 595.3157188527363 409.00629817792475L595.3157188527363 409.00629817792475L597.656210278654 397.32701423077066Q601.340746285792 397.48922650781446 611.5832929219866 397.65143878485827Q621.8490127406161 397.83682424433687 635.5443635596005 397.83682424433687L635.5443635596005 397.83682424433687Q644.7209438037928 397.83682424433687 649.9580830340644 396.23787465633364Q655.2183954467707 394.6620982507652 657.4661941429491 390.3287131354521Q659.7371660215624 385.9721548377042 659.7371660215624 377.81519462064415L659.7371660215624 377.81519462064415Q659.7371660215624 368.80082665349545 657.3966745956446 363.9576315246161Q655.0561831697269 359.11443639573673 649.5409657502374 357.12154270634136Q644.0489215131829 355.1054758345112 634.5247435324679 354.9432635574674L634.5247435324679 354.9432635574674L597.4939980016102 354.9432635574674L597.4939980016102 343.77378962387957L634.3625312554241 343.77378962387957Q642.7048769319626 343.61157734683576 647.6407647905814 342.01262775883254Q652.5534794667653 340.4368513532641 654.7317586156393 336.1729857852555Q656.8868645820784 331.93229339968167 656.8868645820784 324.23879683131827L656.8868645820784 324.23879683131827Q656.8868645820784 316.40626116834585 654.5463731561606 312.2350883300765Q652.2290549126776 308.0639154918072 646.8065302229276 306.55765863354327Q641.3840055331775 305.0514017752794 632.0220398295063 305.0514017752794L632.0220398295063 305.0514017752794Q623.8650796124463 305.0514017752794 617.3534153482592 305.0514017752794Q610.841751084072 305.0514017752794 605.9290364078882 305.1440945050187Q600.9931485492696 305.236787234758 597.656210278654 305.56121178884564L597.656210278654 305.56121178884564L595.3157188527363 293.88192784169155Q601.1553608263133 293.2099055510815 606.4156732390196 292.95500054429834Q611.675985651726 292.72326871995006 617.93274490913 292.63057599021073Q624.1895041665339 292.5378832604714 632.6940621201163 292.5378832604714ZM595.3157188527363 293.88192784169155L609.6830919623305 293.88192784169155L609.6830919623305 409.00629817792475L595.3157188527363 409.00629817792475L595.3157188527363 293.88192784169155ZM731.6435511168386 325.74505368958216L731.6435511168386 325.74505368958216Q745.6633264899104 325.74505368958216 754.0751917137535 329.91622652785145Q762.5102301200315 334.0873993661208 766.1715929447346 343.51888461709643Q769.8561289518725 352.9503698680721 769.8561289518725 368.453228916973L769.8561289518725 368.453228916973Q769.8561289518725 383.9792611483088 766.1715929447346 393.41074639928445Q762.5102301200315 402.8422316502601 754.0751917137535 407.0134044885294Q745.6633264899104 411.1845773267987 731.6435511168386 411.1845773267987L731.6435511168386 411.1845773267987Q717.7859880208105 411.1845773267987 709.3741227969673 407.0134044885294Q700.9390843906893 402.8422316502601 697.185028836247 393.41074639928445Q693.4309732818047 383.9792611483088 693.4309732818047 368.453228916973L693.4309732818047 368.453228916973Q693.4309732818047 352.9503698680721 697.185028836247 343.51888461709643Q700.9390843906893 334.0873993661208 709.3741227969673 329.91622652785145Q717.7859880208105 325.74505368958216 731.6435511168386 325.74505368958216ZM731.6435511168386 337.7719353732587L731.6435511168386 337.7719353732587Q722.7913954267337 337.7719353732587 717.716468473506 340.5063709005686Q712.6183683378435 343.2639796103133 710.4400891889695 349.9378561515442Q708.2849832225304 356.61173269277515 708.2849832225304 368.453228916973L708.2849832225304 368.453228916973Q708.2849832225304 380.31789832360573 710.4400891889695 386.99177486483666Q712.6183683378435 393.6656514060676 717.716468473506 396.40008693337745Q722.7913954267337 399.15769564312217 731.6435511168386 399.15769564312217L731.6435511168386 399.15769564312217Q740.4725336245086 399.15769564312217 745.6633264899104 396.40008693337745Q750.8309461728775 393.6656514060676 752.9860521393166 386.99177486483666Q755.1643312881905 380.31789832360573 755.1643312881905 368.453228916973L755.1643312881905 368.453228916973Q755.1643312881905 356.61173269277515 752.9860521393166 349.9378561515442Q750.8309461728775 343.2639796103133 745.6633264899104 340.5063709005686Q740.4725336245086 337.7719353732587 731.6435511168386 337.7719353732587ZM791.5462277108729 327.7611205614123L805.7282153609887 327.7611205614123L805.7282153609887 384.8134957159627Q805.54282990151 392.4838191018913 808.5553436180378 395.6585450954629Q811.5678573345657 398.83327108903455 818.5661584298841 398.83327108903455L818.5661584298841 398.83327108903455Q825.4022472481589 398.83327108903455 832.1688165191292 395.5658523657236Q838.9122126076645 392.32160682484744 848.4363905883795 386.1575402971828L848.4363905883795 386.1575402971828L850.267072000731 395.9829696495505Q840.7660672024509 403.4910807584353 831.8212187826067 407.337829042617Q822.8995435451973 411.1845773267987 813.7229633010048 411.1845773267987L813.7229633010048 411.1845773267987Q791.5462277108729 411.1845773267987 791.5462277108729 388.82245627718817L791.5462277108729 388.82245627718817L791.5462277108729 327.7611205614123ZM846.9301337301156 327.7611205614123L861.1121213802312 327.7611205614123L861.1121213802312 409.00629817792475L849.7572619871648 409.00629817792475L848.4363905883795 393.6656514060676L846.9301337301156 391.162947703106L846.9301337301156 327.7611205614123ZM893.3228449646443 303.7305303764941L907.5048326147601 303.7305303764941L907.5048326147601 386.64417712831425Q907.5048326147601 392.4838191018913 910.0075363177216 394.9865228048528Q912.5102400206831 397.48922650781446 918.512094271304 397.48922650781446L918.512094271304 397.48922650781446L930.8634005090682 397.48922650781446L932.5318696443759 408.3342758873147Q929.8437804819357 409.00629817792475 926.3446299342764 409.51610819149096Q922.8454793866172 410.00274502262243 919.5085411160017 410.2576500294055Q916.1716028453864 410.51255503618864 914.178709155991 410.51255503618864L914.178709155991 410.51255503618864Q903.982508884666 410.51255503618864 898.6526769246551 404.8351253396554Q893.3228449646443 399.15769564312217 893.3228449646443 388.47485854066576L893.3228449646443 388.47485854066576L893.3228449646443 303.7305303764941ZM894.6437163634296 327.7611205614123L933.3661042120298 327.7611205614123L933.3661042120298 338.9305944950002L878.6310473009623 338.9305944950002L878.6310473009623 328.5953551290662L894.6437163634296 327.7611205614123ZM951.3716669638924 327.7611205614123L965.3914423369642 327.7611205614123L965.3914423369642 409.00629817792475L951.3716669638924 409.00629817792475L951.3716669638924 327.7611205614123ZM955.0562029710302 293.2099055510815L961.7300795122612 293.2099055510815Q966.0634646275744 293.2099055510815 966.0634646275744 297.54329066639457L966.0634646275744 297.54329066639457L966.0634646275744 307.06746864710954Q966.0634646275744 311.4008537624227 961.7300795122612 311.4008537624227L961.7300795122612 311.4008537624227L955.0562029710302 311.4008537624227Q950.6996446732824 311.4008537624227 950.6996446732824 307.06746864710954L950.6996446732824 307.06746864710954L950.6996446732824 297.54329066639457Q950.6996446732824 293.2099055510815 955.0562029710302 293.2099055510815L955.0562029710302 293.2099055510815ZM1024.7843089174323 325.74505368958216L1024.7843089174323 325.74505368958216Q1028.631057201614 325.74505368958216 1033.2888668710148 326.0926514261046Q1037.9698497228503 326.41707598019224 1042.9752571287736 327.1586178181068Q1047.9806645346966 327.92333283845613 1052.731166933837 329.01247241289315Q1057.4816693329767 330.0784388048953 1061.4906298942024 331.4224833861154L1061.4906298942024 331.4224833861154L1049.9735582240921 341.271085920918Q1045.640173108779 339.92704133969784 1041.144575716422 339.09280677204396Q1036.6258051416303 338.25857220439013 1032.454632303361 337.9341476503025Q1028.2834594650917 337.58654991378006 1024.6220966403887 337.7719353732587L1024.6220966403887 337.7719353732587Q1016.6041755179375 337.9341476503025 1011.784153571493 340.69175636004724Q1006.9409584426136 343.4261918873571 1004.855372023479 350.2854538880666Q1002.7697856043443 357.12154270634136 1002.7697856043443 369.63506122114933L1002.7697856043443 369.63506122114933Q1002.7697856043443 384.4890711618751 1006.4311484290474 391.58006498693294Q1010.1156844361852 398.67105881199075 1020.7753483562069 398.67105881199075L1020.7753483562069 398.67105881199075Q1028.4688449245702 398.67105881199075 1034.7256041819742 395.4036400886798Q1040.9823634393783 392.1593945478037 1048.9771113793945 386.64417712831425L1048.9771113793945 386.64417712831425L1050.807792791746 395.9829696495505Q1045.640173108779 400.6639525013861 1039.9627434122458 404.09358350174085Q1034.3084868981473 407.5000413196608 1028.3761521948309 409.33072273201236Q1022.4438174915147 411.1845773267987 1016.1175386868061 411.1845773267987L1016.1175386868061 411.1845773267987Q1001.9355510366904 411.1845773267987 995.0994622184157 400.98837705547373Q988.2402002177062 390.81534996658354 988.2402002177062 368.63861437645164L988.2402002177062 368.63861437645164Q988.2402002177062 358.11798955103905 990.0013620827533 350.10006842858803Q991.7625239478002 342.1053204885718 995.9336967860695 336.6827957988217Q1000.1048696243389 331.2602711090716 1007.1031707196574 328.5026623993269Q1014.1014718149759 325.74505368958216 1024.7843089174323 325.74505368958216ZM1047.3086422440867 393.9900759601552L1047.3086422440867 330.91267337254914L1061.4906298942024 331.4224833861154L1061.4906298942024 442.53789316112307L1047.3086422440867 442.53789316112307L1047.1464299670429 414.683727874458Q1047.1464299670429 409.33072273201236 1047.4708545211306 405.09003034643854Q1047.818452257653 400.82616477842987 1048.8148991023506 396.33056738607297L1048.8148991023506 396.33056738607297L1047.3086422440867 393.9900759601552ZM1086.6798792008622 327.7611205614123L1100.8618668509778 327.7611205614123L1100.8618668509778 384.8134957159627Q1100.699654573934 392.4838191018913 1103.7121682904617 395.6585450954629Q1106.7015088245548 398.83327108903455 1113.7229831023083 398.83327108903455L1113.7229831023083 398.83327108903455Q1120.559071920583 398.83327108903455 1127.3256411915531 395.5658523657236Q1134.0690372800887 392.32160682484744 1143.5932152608034 386.1575402971828L1143.5932152608034 386.1575402971828L1145.423896673155 395.9829696495505Q1135.89971869244 403.4910807584353 1126.9780434550307 407.337829042617Q1118.0563682176212 411.1845773267987 1108.8797879734288 411.1845773267987L1108.8797879734288 411.1845773267987Q1086.6798792008622 411.1845773267987 1086.6798792008622 388.82245627718817L1086.6798792008622 388.82245627718817L1086.6798792008622 327.7611205614123ZM1142.0869584025395 327.7611205614123L1156.2689460526553 327.7611205614123L1156.2689460526553 409.00629817792475L1144.9140866595887 409.00629817792475L1143.5932152608034 393.6656514060676L1142.0869584025395 391.162947703106L1142.0869584025395 327.7611205614123ZM1215.6618126331234 325.74505368958216L1215.6618126331234 325.74505368958216Q1234.0149731215083 325.74505368958216 1242.2646260683077 332.4189302308131Q1250.5374521975418 339.09280677204396 1250.5374521975418 352.278347577462L1250.5374521975418 352.278347577462Q1250.6996644745857 363.1233969569622 1246.0186816227501 369.2179439373224Q1241.3608719533495 375.31249091768257 1231.187844864459 375.31249091768257L1231.187844864459 375.31249091768257L1183.7986867852328 375.31249091768257L1183.7986867852328 364.2820560787037L1227.5033088573211 364.2820560787037Q1233.0185262768107 364.2820560787037 1234.6869954121184 360.5280005242613Q1236.3554645474262 356.7739449698189 1236.3554645474262 352.278347577462L1236.3554645474262 352.278347577462Q1236.1932522703823 344.4458119144896 1231.6744816955907 341.1088736438742Q1227.1788843032336 337.7719353732587 1216.3338349237335 337.7719353732587L1216.3338349237335 337.7719353732587Q1207.4816792336285 337.7719353732587 1202.406752280401 340.3441586235248Q1197.3086521447385 342.9395550562257 1195.2230657256036 349.3585265906735Q1193.137479306469 355.77749812512127 1193.137479306469 367.29456979523155L1193.137479306469 367.29456979523155Q1193.137479306469 380.31789832360573 1195.7328757391701 387.15398714188046Q1198.3050989894361 393.9900759601552 1203.9825286859693 396.4927796631168Q1209.6599583825025 398.99548336607836 1218.998750903739 398.99548336607836L1218.998750903739 398.99548336607836Q1225.5104151679259 398.99548336607836 1233.273431283594 398.4161538052076Q1241.0132742168269 397.83682424433687 1247.2005139269265 397.00258967668304L1247.2005139269265 397.00258967668304L1248.7067707851904 406.50359447496317Q1244.8600225010086 408.00985133322706 1239.2752855342148 409.00629817792475Q1233.6905485674208 410.00274502262243 1227.7582138641044 410.51255503618864Q1221.825879160788 410.99919186732006 1217.1680694913873 410.99919186732006L1217.1680694913873 410.99919186732006Q1203.1482941183156 410.99919186732006 1194.6437361647331 406.7584994817463Q1186.1391782111505 402.49463391373763 1182.1997371972293 393.063148662762Q1178.2834693657433 383.6548365942212 1178.2834693657433 368.1288043628854L1178.2834693657433 368.1288043628854Q1178.2834693657433 352.1161353004182 1182.1997371972293 342.84686232648636Q1186.1391782111505 333.60076253498937 1194.3888311579499 329.6613215210684Q1202.6384841047493 325.74505368958216 1215.6618126331234 325.74505368958216Z " fill="#ffffff" transform="matrix(0.6996960182577057,0,0,0.6996960182577057,0,42.83518905587066)"/></g></svg>